<svg width="145" height="36" viewBox="0 0 145 36" fill="none" xmlns="http://www.w3.org/2000/svg">
<path d="M0 10C0 4.47715 4.47715 0 10 0H26C31.5228 0 36 4.47715 36 10V26C36 31.5228 31.5228 36 26 36H10C4.47715 36 0 31.5228 0 26V10Z" fill="url(#paint0_linear_344_10862)"/>
<path d="M24.6666 21.0004C24.6666 26.0004 21.7499 28.5005 18.2833 29.9505C18.1017 30.0243 17.9045 30.0207 17.7249 29.9405C14.2499 28.5005 11.3333 26.0004 11.3333 21.0004V14.0004C11.3333 13.7352 11.421 13.4809 11.5773 13.2933C11.7336 13.1058 11.9456 13.0004 12.1666 13.0004C13.8333 13.0004 15.9166 11.8004 17.3666 10.2804C17.5431 10.0994 17.7677 10 17.9999 10C18.2321 10 18.4567 10.0994 18.6333 10.2804C20.0916 11.8104 22.1666 13.0004 23.8333 13.0004C24.0543 13.0004 24.2662 13.1058 24.4225 13.2933C24.5788 13.4809 24.6666 13.7352 24.6666 14.0004V21.0004Z" stroke="white" stroke-width="2" stroke-linecap="round" stroke-linejoin="round"/>
<path d="M50.2 25.14C49.2267 25.14 48.3467 24.9733 47.56 24.64C46.7867 24.3067 46.1733 23.8267 45.72 23.2C45.2667 22.5733 45.0333 21.8333 45.02 20.98H48.02C48.06 21.5533 48.26 22.0067 48.62 22.34C48.9933 22.6733 49.5 22.84 50.14 22.84C50.7933 22.84 51.3067 22.6867 51.68 22.38C52.0533 22.06 52.24 21.6467 52.24 21.14C52.24 20.7267 52.1133 20.3867 51.86 20.12C51.6067 19.8533 51.2867 19.6467 50.9 19.5C50.5267 19.34 50.0067 19.1667 49.34 18.98C48.4333 18.7133 47.6933 18.4533 47.12 18.2C46.56 17.9333 46.0733 17.54 45.66 17.02C45.26 16.4867 45.06 15.78 45.06 14.9C45.06 14.0733 45.2667 13.3533 45.68 12.74C46.0933 12.1267 46.6733 11.66 47.42 11.34C48.1667 11.0067 49.02 10.84 49.98 10.84C51.42 10.84 52.5867 11.1933 53.48 11.9C54.3867 12.5933 54.8867 13.5667 54.98 14.82H51.9C51.8733 14.34 51.6667 13.9467 51.28 13.64C50.9067 13.32 50.4067 13.16 49.78 13.16C49.2333 13.16 48.7933 13.3 48.46 13.58C48.14 13.86 47.98 14.2667 47.98 14.8C47.98 15.1733 48.1 15.4867 48.34 15.74C48.5933 15.98 48.9 16.18 49.26 16.34C49.6333 16.4867 50.1533 16.66 50.82 16.86C51.7267 17.1267 52.4667 17.3933 53.04 17.66C53.6133 17.9267 54.1067 18.3267 54.52 18.86C54.9333 19.3933 55.14 20.0933 55.14 20.96C55.14 21.7067 54.9467 22.4 54.56 23.04C54.1733 23.68 53.6067 24.1933 52.86 24.58C52.1133 24.9533 51.2267 25.14 50.2 25.14ZM67.8675 19.22C67.8675 19.62 67.8408 19.98 67.7875 20.3H59.6875C59.7542 21.1 60.0342 21.7267 60.5275 22.18C61.0208 22.6333 61.6275 22.86 62.3475 22.86C63.3875 22.86 64.1275 22.4133 64.5675 21.52H67.5875C67.2675 22.5867 66.6542 23.4667 65.7475 24.16C64.8408 24.84 63.7275 25.18 62.4075 25.18C61.3408 25.18 60.3808 24.9467 59.5275 24.48C58.6875 24 58.0275 23.3267 57.5475 22.46C57.0808 21.5933 56.8475 20.5933 56.8475 19.46C56.8475 18.3133 57.0808 17.3067 57.5475 16.44C58.0142 15.5733 58.6675 14.9067 59.5075 14.44C60.3475 13.9733 61.3142 13.74 62.4075 13.74C63.4608 13.74 64.4008 13.9667 65.2275 14.42C66.0675 14.8733 66.7142 15.52 67.1675 16.36C67.6342 17.1867 67.8675 18.14 67.8675 19.22ZM64.9675 18.42C64.9542 17.7 64.6942 17.1267 64.1875 16.7C63.6808 16.26 63.0608 16.04 62.3275 16.04C61.6342 16.04 61.0475 16.2533 60.5675 16.68C60.1008 17.0933 59.8142 17.6733 59.7075 18.42H64.9675ZM69.1912 19.46C69.1912 18.3133 69.4246 17.3133 69.8913 16.46C70.3579 15.5933 71.0046 14.9267 71.8313 14.46C72.6579 13.98 73.6046 13.74 74.6713 13.74C76.0446 13.74 77.1779 14.0867 78.0713 14.78C78.9779 15.46 79.5846 16.42 79.8913 17.66H76.8713C76.7113 17.18 76.4379 16.8067 76.0513 16.54C75.6779 16.26 75.2113 16.12 74.6513 16.12C73.8513 16.12 73.2179 16.4133 72.7513 17C72.2846 17.5733 72.0513 18.3933 72.0513 19.46C72.0513 20.5133 72.2846 21.3333 72.7513 21.92C73.2179 22.4933 73.8513 22.78 74.6513 22.78C75.7846 22.78 76.5246 22.2733 76.8713 21.26H79.8913C79.5846 22.46 78.9779 23.4133 78.0713 24.12C77.1646 24.8267 76.0313 25.18 74.6713 25.18C73.6046 25.18 72.6579 24.9467 71.8313 24.48C71.0046 24 70.3579 23.3333 69.8913 22.48C69.4246 21.6133 69.1912 20.6067 69.1912 19.46ZM92.4025 13.92V25H89.5825V23.6C89.2225 24.08 88.7492 24.46 88.1625 24.74C87.5892 25.0067 86.9625 25.14 86.2825 25.14C85.4158 25.14 84.6492 24.96 83.9825 24.6C83.3158 24.2267 82.7892 23.6867 82.4025 22.98C82.0292 22.26 81.8425 21.4067 81.8425 20.42V13.92H84.6425V20.02C84.6425 20.9 84.8625 21.58 85.3025 22.06C85.7425 22.5267 86.3425 22.76 87.1025 22.76C87.8758 22.76 88.4825 22.5267 88.9225 22.06C89.3625 21.58 89.5825 20.9 89.5825 20.02V13.92H92.4025ZM97.9652 15.64C98.3252 15.0533 98.7918 14.5933 99.3652 14.26C99.9518 13.9267 100.618 13.76 101.365 13.76V16.7H100.625C99.7452 16.7 99.0785 16.9067 98.6252 17.32C98.1852 17.7333 97.9652 18.4533 97.9652 19.48V25H95.1652V13.92H97.9652V15.64ZM113.551 19.22C113.551 19.62 113.524 19.98 113.471 20.3H105.371C105.438 21.1 105.718 21.7267 106.211 22.18C106.704 22.6333 107.311 22.86 108.031 22.86C109.071 22.86 109.811 22.4133 110.251 21.52H113.271C112.951 22.5867 112.338 23.4667 111.431 24.16C110.524 24.84 109.411 25.18 108.091 25.18C107.024 25.18 106.064 24.9467 105.211 24.48C104.371 24 103.711 23.3267 103.231 22.46C102.764 21.5933 102.531 20.5933 102.531 19.46C102.531 18.3133 102.764 17.3067 103.231 16.44C103.698 15.5733 104.351 14.9067 105.191 14.44C106.031 13.9733 106.998 13.74 108.091 13.74C109.144 13.74 110.084 13.9667 110.911 14.42C111.751 14.8733 112.398 15.52 112.851 16.36C113.318 17.1867 113.551 18.14 113.551 19.22ZM110.651 18.42C110.638 17.7 110.378 17.1267 109.871 16.7C109.364 16.26 108.744 16.04 108.011 16.04C107.318 16.04 106.731 16.2533 106.251 16.68C105.784 17.0933 105.498 17.6733 105.391 18.42H110.651ZM123.955 25L120.935 20.3L118.195 25H115.035L119.435 17.96L114.975 11.04H118.195L121.215 15.72L123.935 11.04H127.095L122.715 18.06L127.175 25H123.955Z" fill="#1E1E1E"/>
<defs>
<linearGradient id="paint0_linear_344_10862" x1="18" y1="0" x2="18" y2="36" gradientUnits="userSpaceOnUse">
<stop stop-color="#2C36A2"/>
<stop offset="1" stop-color="#4A5CF5"/>
</linearGradient>
</defs>
</svg>
